<svg xmlns="http://www.w3.org/2000/svg" width="162.048" height="142.045" viewBox="0 0 162.048 142.045"><path d="M118.051,942.228a43.568,43.568,0,0,1,0-62.339,45.344,45.344,0,0,1,63.372,0,44.812,44.812,0,0,1,4.524,5.289,44.881,44.881,0,0,1,4.531-5.289,45.343,45.343,0,0,1,63.371,0,43.581,43.581,0,0,1,0,62.339l-67.9,66.8ZM127.1,888.8a31.135,31.135,0,0,0,0,44.532c3.229,3.17,58.847,57.888,58.847,57.888S241.572,936.5,244.8,933.328a31.137,31.137,0,0,0,0-44.532,32.394,32.394,0,0,0-45.269,0l-13.579,13.358s-10.588-10.421-13.58-13.358a32.392,32.392,0,0,0-45.267,0Zm102.188,34.163a13.136,13.136,0,0,0,3.963-9.409,13.418,13.418,0,0,0-13.527-13.306v-6.654a20.132,20.132,0,0,1,20.29,19.959,19.733,19.733,0,0,1-5.944,14.111Z" transform="translate(-104.924 -866.981)" fill="#e3d5b8"/></svg>