<svg xmlns="http://www.w3.org/2000/svg" width="136.978" height="136.978" viewBox="0 0 136.978 136.978"><path d="M483.63,939.489l11.042-11.041a28.509,28.509,0,0,0,30.583-6.365l4.035-4.035a22.828,22.828,0,0,0,0-32.288l-4.035,4.035-16.141,16.141a5.707,5.707,0,1,1-8.071-8.071l16.141-16.141,4.036-4.036a22.83,22.83,0,0,0-32.288,0l-4.035,4.036a28.509,28.509,0,0,0-6.365,30.582l-15.077,15.077L409.891,873.82,399,871l2.82,10.891,53.563,53.562-51.2,51.2a11.414,11.414,0,1,0,16.141,16.142l47.164-47.164,49,49a11.414,11.414,0,0,0,16.142-16.142Zm5.3-53.73,4.041-4.035a17.059,17.059,0,0,1,19.436-3.294l-15.4,15.4a11.414,11.414,0,1,0,16.141,16.142l15.4-15.4a17.071,17.071,0,0,1-3.294,19.442l-4.035,4.035a22.831,22.831,0,0,1-32.288-32.288Zm-7.663,31.881a28.561,28.561,0,0,0,8.07,8.071L475.56,939.489l-8.071-8.07Zm-64.978,81.119a5.706,5.706,0,0,1-8.07-8.069l8.07-8.071,8.071,8.071Zm4.035-20.176,39.093-39.094,8.071,8.071L428.4,986.653ZM472.1,952.169l8.071-8.07,36.323,36.323-8.07,8.071Zm56.5,48.43a5.706,5.706,0,0,1-8.07,0l-8.071-8.071,8.071-8.07,8.07,8.07A5.705,5.705,0,0,1,528.6,1000.6Z" transform="translate(-399 -871)" fill="#e3d5b8"/></svg>