<svg xmlns="http://www.w3.org/2000/svg" width="116.001" height="155" viewBox="0 0 116.001 155"><path d="M733.111,1015a6.448,6.448,0,0,1-6.444-6.458v-6.458a6.448,6.448,0,0,1-6.445-6.458v-6.458a6.447,6.447,0,0,1-6.444-6.458V976.25c0-.113.057-.207.063-.315-2.758-.732-4.79-3.3-6.508-6.143L691.374,937.5a58,58,0,1,1,109.253,0l-15.96,32.291c-1.347,2.705-3.7,5.3-6.52,6.106a3.5,3.5,0,0,1,.075.353v6.458a6.447,6.447,0,0,1-6.444,6.458v6.458a6.448,6.448,0,0,1-6.445,6.458v6.458a6.448,6.448,0,0,1-6.444,6.458Zm0-6.458h25.778v-6.458H733.111Zm-6.444-12.917h38.666v-6.458H726.667Zm-6.445-12.917h51.556V976.25H720.222Zm-19.333-64.583a45.072,45.072,0,0,0,4.4,19.375l13.06,25.833h55.445l12.92-25.833a45.119,45.119,0,1,0-85.823-19.375Zm77.333,0A32.255,32.255,0,0,0,746,885.833v-6.458a38.71,38.71,0,0,1,38.667,38.75Z" transform="translate(-688 -860)" fill="#e3d5b8"/></svg>