<svg xmlns="http://www.w3.org/2000/svg" width="150" height="149.999" viewBox="0 0 150 149.999"><path d="M942,941a75,75,0,1,1,75,75A75,75,0,0,1,942,941Zm81.249,56.25v5.935a62.511,62.511,0,0,0,55.933-55.936h-5.933a6.25,6.25,0,1,1,0-12.5h5.933a62.511,62.511,0,0,0-55.933-55.936v5.935a6.25,6.25,0,0,1-12.5,0v-5.935a62.512,62.512,0,0,0-55.932,55.936h5.933a6.25,6.25,0,1,1,0,12.5h-5.933a62.512,62.512,0,0,0,55.932,55.936V997.25a6.25,6.25,0,0,1,12.5,0Zm-19.507-42.993-26.513-8.844,70.709-35.357-35.357,70.716Zm-10.229-10,12.207,4.065,2.966.989.983,2.966,4.072,12.2,20.221-40.447Z" transform="translate(-942 -866.001)" fill="#e3d5b8"/></svg>